<?xml version="1.0" encoding="utf-8"?>
<!-- Generator: Adobe Illustrator 12.0.0, SVG Export Plug-In . SVG Version: 6.00 Build 51448)  -->
<!DOCTYPE svg PUBLIC "-//W3C//DTD SVG 1.1//EN" "http://www.w3.org/Graphics/SVG/1.1/DTD/svg11.dtd" [
	<!ENTITY ns_svg "http://www.w3.org/2000/svg">
	<!ENTITY ns_xlink "http://www.w3.org/1999/xlink">
]>
<svg  version="1.1" id="Layer_1" xmlns="&ns_svg;" xmlns:xlink="&ns_xlink;" width="56.333" height="134.071"
	 viewBox="0 0 56.333 134.071" overflow="visible" enable-background="new 0 0 56.333 134.071" xml:space="preserve">
<path fill="#29295F" d="M22.384,29.203c-0.261,0-0.486-0.198-0.518-0.466c-0.034-0.291,0.17-0.555,0.456-0.589
	c3.507-0.426,6.151-3.451,6.151-7.037c0-2.358-1.153-4.556-3.082-5.879l-4.711-2.761c-0.25-0.146-0.335-0.471-0.19-0.723
	c0.143-0.253,0.462-0.342,0.713-0.193l4.742,2.781c2.248,1.539,3.572,4.064,3.572,6.775c0,4.122-3.041,7.599-7.07,8.088
	C22.425,29.202,22.404,29.203,22.384,29.203"/>
<path fill="none" stroke="#2A2A5F" stroke-width="0.34" stroke-miterlimit="10" d="M22.384,29.203c-0.261,0-0.486-0.198-0.518-0.466
	c-0.034-0.291,0.17-0.555,0.456-0.589c3.507-0.426,6.151-3.451,6.151-7.037c0-2.358-1.153-4.556-3.082-5.879l-4.711-2.761
	c-0.25-0.146-0.335-0.471-0.19-0.723c0.143-0.253,0.462-0.342,0.713-0.193l4.742,2.781c2.248,1.539,3.572,4.064,3.572,6.775
	c0,4.122-3.041,7.599-7.07,8.088C22.425,29.202,22.404,29.203,22.384,29.203z"/>
<path fill="#29295F" d="M51.165,12.627c0.108,0.017,0.213,0.066,0.297,0.15l0.344,0.348l1.146-2.746l-2.721,1.157l0.785,0.792
	C51.099,12.412,51.15,12.518,51.165,12.627 M31.621,32.415c-0.135,0-0.271-0.051-0.373-0.155c-0.206-0.208-0.206-0.544,0-0.752
	l8.062-8.129l-0.044-0.044c-0.779-0.996-1.185-2.189-1.184-3.406c0.001-1.445,0.55-2.8,1.549-3.82
	c0.009-0.01,0.02-0.021,0.029-0.031l3.512-3.534c0.27-0.271,0.419-0.633,0.419-1.02c0.001-0.385-0.147-0.746-0.416-1.018
	c-0.271-0.273-0.674-0.402-1.013-0.421c-0.381,0-0.739,0.149-1.008,0.419l-0.709,0.713c-0.209,0.206-0.543,0.205-0.746-0.001
	c-0.205-0.209-0.205-0.545,0-0.751l0.709-0.713c0.471-0.472,1.092-0.73,1.752-0.73h0.006c0.662,0,1.287,0.26,1.755,0.732
	c0.468,0.474,0.726,1.103,0.726,1.772c-0.002,0.669-0.261,1.298-0.729,1.77l-3.487,3.509c-0.009,0.01-0.018,0.021-0.027,0.03
	c-0.816,0.821-1.266,1.921-1.267,3.094c0,0.979,0.325,1.938,0.917,2.702l9.846-9.927l-0.967-0.975
	c-0.124-0.126-0.178-0.304-0.145-0.477c0.033-0.175,0.15-0.32,0.312-0.389l4.634-1.97c0.197-0.084,0.426-0.039,0.578,0.114
	c0.151,0.152,0.196,0.382,0.113,0.581l-1.95,4.679c-0.067,0.164-0.212,0.282-0.384,0.316c-0.174,0.037-0.352-0.02-0.475-0.146
	l-0.899-0.908c-0.024-0.025-0.047-0.052-0.065-0.081l-9.852,9.933l0.034,0.034c0.707,0.555,1.659,0.885,2.635,0.886h0.003
	c1.162,0,2.251-0.452,3.066-1.273l3.516-3.538c0.469-0.472,1.092-0.73,1.752-0.73h0.006c0.652,0,1.268,0.253,1.733,0.713
	c0.008,0.007,0.015,0.013,0.022,0.021c0.467,0.472,0.725,1.102,0.725,1.772c-0.001,0.67-0.26,1.298-0.729,1.769l-0.709,0.712
	c-0.205,0.207-0.539,0.207-0.744,0c-0.207-0.208-0.207-0.544,0-0.752l0.707-0.713c0.271-0.271,0.42-0.632,0.42-1.018
	c0-0.378-0.143-0.734-0.401-1.003c-0.007-0.006-0.011-0.012-0.017-0.018c-0.271-0.271-0.627-0.421-1.009-0.421
	c-0.419,0.003-0.741,0.149-1.012,0.42l-3.515,3.538c-1.016,1.021-2.369,1.584-3.813,1.584h-0.004
	c-1.21-0.001-2.395-0.412-3.333-1.155l-0.078-0.079l-8.062,8.13C31.89,32.364,31.755,32.415,31.621,32.415 M10.148,54.085
	c-0.135,0-0.27-0.052-0.373-0.156c-0.206-0.207-0.206-0.544,0-0.751l17.916-18.087c0.205-0.208,0.54-0.208,0.746,0
	c0.205,0.207,0.205,0.543,0,0.751L10.521,53.929C10.418,54.033,10.283,54.085,10.148,54.085"/>
<path fill="none" stroke="#2A2A5F" stroke-width="0.34" stroke-miterlimit="10" d="M51.165,12.627
	c0.108,0.017,0.213,0.066,0.297,0.15l0.344,0.348l1.146-2.746l-2.721,1.157l0.785,0.792C51.099,12.412,51.15,12.518,51.165,12.627z
	 M31.621,32.415c-0.135,0-0.271-0.051-0.373-0.155c-0.206-0.208-0.206-0.544,0-0.752l8.062-8.129l-0.044-0.044
	c-0.779-0.996-1.185-2.189-1.184-3.406c0.001-1.445,0.55-2.8,1.549-3.82c0.009-0.01,0.02-0.021,0.029-0.031l3.512-3.534
	c0.27-0.271,0.419-0.633,0.419-1.02c0.001-0.385-0.147-0.746-0.416-1.018c-0.271-0.273-0.674-0.402-1.013-0.421
	c-0.381,0-0.739,0.149-1.008,0.419l-0.709,0.713c-0.209,0.206-0.543,0.205-0.746-0.001c-0.205-0.209-0.205-0.545,0-0.751
	l0.709-0.713c0.471-0.472,1.092-0.73,1.752-0.73h0.006c0.662,0,1.287,0.26,1.755,0.732c0.468,0.474,0.726,1.103,0.726,1.772
	c-0.002,0.669-0.261,1.298-0.729,1.77l-3.487,3.509c-0.009,0.01-0.018,0.021-0.027,0.03c-0.816,0.821-1.266,1.921-1.267,3.094
	c0,0.979,0.325,1.938,0.917,2.702l9.846-9.927l-0.967-0.975c-0.124-0.126-0.178-0.304-0.145-0.477
	c0.033-0.175,0.15-0.32,0.312-0.389l4.634-1.97c0.197-0.084,0.426-0.039,0.578,0.114c0.151,0.152,0.196,0.382,0.113,0.581
	l-1.95,4.679c-0.067,0.164-0.212,0.282-0.384,0.316c-0.174,0.037-0.352-0.02-0.475-0.146l-0.899-0.908
	c-0.024-0.025-0.047-0.052-0.065-0.081l-9.852,9.933l0.034,0.034c0.707,0.555,1.659,0.885,2.635,0.886h0.003
	c1.162,0,2.251-0.452,3.066-1.273l3.516-3.538c0.469-0.472,1.092-0.73,1.752-0.73h0.006c0.652,0,1.268,0.253,1.733,0.713
	c0.008,0.007,0.015,0.013,0.022,0.021c0.467,0.472,0.725,1.102,0.725,1.772c-0.001,0.67-0.26,1.298-0.729,1.769l-0.709,0.712
	c-0.205,0.207-0.539,0.207-0.744,0c-0.207-0.208-0.207-0.544,0-0.752l0.707-0.713c0.271-0.271,0.42-0.632,0.42-1.018
	c0-0.378-0.143-0.734-0.401-1.003c-0.007-0.006-0.011-0.012-0.017-0.018c-0.271-0.271-0.627-0.421-1.009-0.421
	c-0.419,0.003-0.741,0.149-1.012,0.42l-3.515,3.538c-1.016,1.021-2.369,1.584-3.813,1.584h-0.004
	c-1.21-0.001-2.395-0.412-3.333-1.155l-0.078-0.079l-8.062,8.13C31.89,32.364,31.755,32.415,31.621,32.415z M10.148,54.085
	c-0.135,0-0.27-0.052-0.373-0.156c-0.206-0.207-0.206-0.544,0-0.751l17.916-18.087c0.205-0.208,0.54-0.208,0.746,0
	c0.205,0.207,0.205,0.543,0,0.751L10.521,53.929C10.418,54.033,10.283,54.085,10.148,54.085z"/>
<path fill="#29295F" d="M26.07,45.617c-4.463,0-8.094-3.66-8.094-8.159h1.05c0,3.915,3.16,7.101,7.044,7.101
	c3.885,0,7.045-3.186,7.045-7.101c0-3.897-3.162-7.084-7.048-7.102h-0.05c-1.112,0-1.849,0.159-2.898,0.624l-0.141,0.061
	c-0.777,0.368-1.107,1.418-0.703,2.282c0.342,0.732,1.024,1.362,1.919,0.94c0.126-0.058,1.177-0.522,1.876-0.522
	c2.033,0,3.686,1.667,3.686,3.717c0,2.048-1.652,3.715-3.686,3.715c-1.01,0-1.945-0.366-2.633-1.028l0.726-0.766
	c0.491,0.475,1.168,0.736,1.907,0.736c1.454,0,2.637-1.192,2.637-2.657c0-1.466-1.183-2.659-2.637-2.659
	c-0.359,0-1.073,0.26-1.438,0.426c-1.264,0.596-2.626,0.004-3.307-1.452c-0.657-1.406-0.109-3.065,1.223-3.698l0.155-0.067
	c1.196-0.529,2.095-0.685,3.369-0.71c4.462,0.021,8.091,3.681,8.091,8.16C34.164,41.957,30.533,45.617,26.07,45.617"/>
<path fill="none" stroke="#2A2A5F" stroke-width="0.34" stroke-miterlimit="10" d="M26.07,45.617c-4.463,0-8.094-3.66-8.094-8.159
	h1.05c0,3.915,3.16,7.101,7.044,7.101c3.885,0,7.045-3.186,7.045-7.101c0-3.897-3.162-7.084-7.048-7.102h-0.05
	c-1.112,0-1.849,0.159-2.898,0.624l-0.141,0.061c-0.777,0.368-1.107,1.418-0.703,2.282c0.342,0.732,1.024,1.362,1.919,0.94
	c0.126-0.058,1.177-0.522,1.876-0.522c2.033,0,3.686,1.667,3.686,3.717c0,2.048-1.652,3.715-3.686,3.715
	c-1.01,0-1.945-0.366-2.633-1.028l0.726-0.766c0.491,0.475,1.168,0.736,1.907,0.736c1.454,0,2.637-1.192,2.637-2.657
	c0-1.466-1.183-2.659-2.637-2.659c-0.359,0-1.073,0.26-1.438,0.426c-1.264,0.596-2.626,0.004-3.307-1.452
	c-0.657-1.406-0.109-3.065,1.223-3.698l0.155-0.067c1.196-0.529,2.095-0.685,3.369-0.71c4.462,0.021,8.091,3.681,8.091,8.16
	C34.164,41.957,30.533,45.617,26.07,45.617z"/>
<path fill="#29295F" d="M23.56,13.871h-0.004c-0.29-0.002-0.525-0.24-0.523-0.531l0.02-2.986c0-0.995,0.795-1.806,1.773-1.806h9.237
	V6.237l-5.817-0.904c-0.191-0.03-0.351-0.163-0.416-0.347l-1.323-3.759h-7.182c-0.201,0-0.366,0.164-0.366,0.367l0.032,8.864
	c0,0.188-0.098,0.36-0.258,0.455c-0.16,0.095-0.359,0.1-0.522,0.009L4.795,3.6C4.229,3.293,3.574,3.223,2.954,3.41
	C2.333,3.594,1.822,4.009,1.516,4.578c-0.307,0.57-0.375,1.225-0.19,1.847c0.184,0.62,0.598,1.131,1.165,1.44l1.326,0.722
	c0.255,0.139,0.351,0.459,0.212,0.716C3.89,9.559,3.57,9.654,3.315,9.516L1.99,8.796c-0.816-0.445-1.41-1.18-1.674-2.07
	C0.051,5.835,0.148,4.894,0.588,4.075c0.441-0.817,1.174-1.413,2.065-1.679c0.889-0.267,1.829-0.17,2.643,0.274l12.638,6.895
	l-0.029-7.969c0-0.787,0.637-1.426,1.419-1.426h7.555c0.224,0,0.423,0.141,0.497,0.353l1.342,3.814l5.951,0.924
	c0.257,0.041,0.445,0.262,0.445,0.523v3.292c0,0.292-0.234,0.528-0.526,0.528h-9.763c-0.39,0-0.72,0.345-0.72,0.753l-0.019,2.989
	C24.084,13.637,23.848,13.871,23.56,13.871"/>
<path fill="none" stroke="#2A2A5F" stroke-width="0.34" stroke-miterlimit="10" d="M23.56,13.871h-0.004
	c-0.29-0.002-0.525-0.24-0.523-0.531l0.02-2.986c0-0.995,0.795-1.806,1.773-1.806h9.237V6.237l-5.817-0.904
	c-0.191-0.03-0.351-0.163-0.416-0.347l-1.323-3.759h-7.182c-0.201,0-0.366,0.164-0.366,0.367l0.032,8.864
	c0,0.188-0.098,0.36-0.258,0.455c-0.16,0.095-0.359,0.1-0.522,0.009L4.795,3.6C4.229,3.293,3.574,3.223,2.954,3.41
	C2.333,3.594,1.822,4.009,1.516,4.578c-0.307,0.57-0.375,1.225-0.19,1.847c0.184,0.62,0.598,1.131,1.165,1.44l1.326,0.722
	c0.255,0.139,0.351,0.459,0.212,0.716C3.89,9.559,3.57,9.654,3.315,9.516L1.99,8.796c-0.816-0.445-1.41-1.18-1.674-2.07
	C0.051,5.835,0.148,4.894,0.588,4.075c0.441-0.817,1.174-1.413,2.065-1.679c0.889-0.267,1.829-0.17,2.643,0.274l12.638,6.895
	l-0.029-7.969c0-0.787,0.637-1.426,1.419-1.426h7.555c0.224,0,0.423,0.141,0.497,0.353l1.342,3.814l5.951,0.924
	c0.257,0.041,0.445,0.262,0.445,0.523v3.292c0,0.292-0.234,0.528-0.526,0.528h-9.763c-0.39,0-0.72,0.345-0.72,0.753l-0.019,2.989
	C24.084,13.637,23.848,13.871,23.56,13.871z"/>
<path fill="#29295F" d="M18.385,37.995c-0.289,0-0.524-0.237-0.524-0.53l-0.002-13.16l-6.453-3.324
	c-0.575-0.314-1.226-0.383-1.842-0.196c-0.617,0.185-1.125,0.601-1.43,1.17c-0.304,0.571-0.371,1.228-0.188,1.851
	c0.183,0.622,0.594,1.134,1.158,1.443c0.012,0.006,0.023,0.014,0.035,0.021l1.283,0.702c0.255,0.139,0.349,0.46,0.212,0.718
	c-0.138,0.257-0.456,0.353-0.71,0.213l-1.318-0.721c-0.013-0.007-0.025-0.014-0.038-0.022c-0.79-0.444-1.367-1.172-1.626-2.051
	c-0.263-0.894-0.167-1.837,0.271-2.656c0.439-0.82,1.168-1.417,2.052-1.684c0.885-0.266,1.819-0.168,2.628,0.275l6.727,3.462
	c0.176,0.09,0.286,0.272,0.286,0.472l0.003,13.487C18.909,37.757,18.673,37.995,18.385,37.995"/>
<path fill="none" stroke="#2A2A5F" stroke-width="0.34" stroke-miterlimit="10" d="M18.385,37.995c-0.289,0-0.524-0.237-0.524-0.53
	l-0.002-13.16l-6.453-3.324c-0.575-0.314-1.226-0.383-1.842-0.196c-0.617,0.185-1.125,0.601-1.43,1.17
	c-0.304,0.571-0.371,1.228-0.188,1.851c0.183,0.622,0.594,1.134,1.158,1.443c0.012,0.006,0.023,0.014,0.035,0.021l1.283,0.702
	c0.255,0.139,0.349,0.46,0.212,0.718c-0.138,0.257-0.456,0.353-0.71,0.213l-1.318-0.721c-0.013-0.007-0.025-0.014-0.038-0.022
	c-0.79-0.444-1.367-1.172-1.626-2.051c-0.263-0.894-0.167-1.837,0.271-2.656c0.439-0.82,1.168-1.417,2.052-1.684
	c0.885-0.266,1.819-0.168,2.628,0.275l6.727,3.462c0.176,0.09,0.286,0.272,0.286,0.472l0.003,13.487
	C18.909,37.757,18.673,37.995,18.385,37.995z"/>
<path fill="#29295F" d="M21.377,19.438c-0.085,0-0.171-0.021-0.251-0.065l-13.38-7.289c-0.565-0.305-1.217-0.375-1.836-0.189
	c-0.62,0.184-1.129,0.597-1.435,1.163c-0.305,0.568-0.373,1.22-0.188,1.839c0.183,0.617,0.596,1.126,1.162,1.433l1.322,0.719
	c0.255,0.139,0.349,0.457,0.211,0.713c-0.138,0.256-0.457,0.35-0.712,0.212l-1.321-0.717c-0.814-0.443-1.406-1.174-1.67-2.061
	c-0.264-0.887-0.167-1.824,0.272-2.639c0.44-0.814,1.171-1.407,2.059-1.672c0.886-0.264,1.823-0.168,2.636,0.272l13.383,7.291
	c0.255,0.139,0.349,0.459,0.21,0.715C21.743,19.339,21.563,19.438,21.377,19.438"/>
<path fill="none" stroke="#2A2A5F" stroke-width="0.34" stroke-miterlimit="10" d="M21.377,19.438c-0.085,0-0.171-0.021-0.251-0.065
	l-13.38-7.289c-0.565-0.305-1.217-0.375-1.836-0.189c-0.62,0.184-1.129,0.597-1.435,1.163c-0.305,0.568-0.373,1.22-0.188,1.839
	c0.183,0.617,0.596,1.126,1.162,1.433l1.322,0.719c0.255,0.139,0.349,0.457,0.211,0.713c-0.138,0.256-0.457,0.35-0.712,0.212
	l-1.321-0.717c-0.814-0.443-1.406-1.174-1.67-2.061c-0.264-0.887-0.167-1.824,0.272-2.639c0.44-0.814,1.171-1.407,2.059-1.672
	c0.886-0.264,1.823-0.168,2.636,0.272l13.383,7.291c0.255,0.139,0.349,0.459,0.21,0.715C21.743,19.339,21.563,19.438,21.377,19.438z
	"/>
<path fill="#29295F" d="M3.975,72.817c0-0.685,0.08-1.307,0.24-1.862c0.159-0.556,0.402-1.032,0.727-1.429
	c0.326-0.397,0.74-0.7,1.243-0.914c0.503-0.213,1.098-0.32,1.784-0.32c0.402,0,0.792,0.042,1.171,0.124
	c0.379,0.084,0.713,0.192,1.004,0.329c0.289,0.136,0.523,0.295,0.701,0.479c0.177,0.185,0.266,0.381,0.266,0.594
	c0,0.168-0.059,0.313-0.178,0.438c-0.118,0.122-0.272,0.186-0.461,0.186c-0.131,0-0.234-0.027-0.311-0.08
	c-0.077-0.053-0.186-0.127-0.328-0.223c-0.521-0.365-1.113-0.55-1.775-0.55c-0.498,0-0.917,0.074-1.26,0.221
	c-0.343,0.15-0.619,0.364-0.826,0.649c-0.207,0.284-0.355,0.625-0.444,1.02c-0.088,0.397-0.133,0.844-0.133,1.34v3.801
	c0,0.496,0.045,0.942,0.133,1.34c0.089,0.395,0.237,0.736,0.444,1.019c0.207,0.285,0.483,0.501,0.826,0.649
	c0.343,0.148,0.762,0.221,1.26,0.221c0.662,0,1.254-0.183,1.775-0.549c0.153-0.095,0.266-0.17,0.337-0.223
	c0.071-0.053,0.171-0.079,0.302-0.079c0.189,0,0.343,0.062,0.461,0.187c0.119,0.123,0.178,0.27,0.178,0.435
	c0,0.213-0.089,0.411-0.266,0.595c-0.178,0.183-0.412,0.344-0.701,0.479c-0.291,0.137-0.625,0.246-1.004,0.328
	c-0.379,0.083-0.769,0.125-1.171,0.125c-0.686,0-1.281-0.106-1.784-0.32c-0.503-0.211-0.917-0.517-1.243-0.913
	c-0.325-0.397-0.568-0.872-0.727-1.429c-0.16-0.557-0.24-1.178-0.24-1.863V72.817z"/>
<path fill="#29295F" d="M7.969,68.411c-0.666,0-1.251,0.104-1.737,0.312c-0.484,0.204-0.887,0.501-1.197,0.879
	c-0.314,0.383-0.551,0.849-0.705,1.386c-0.157,0.543-0.235,1.159-0.235,1.83v3.801c0,0.67,0.078,1.287,0.235,1.83
	c0.153,0.535,0.39,1.002,0.705,1.386c0.312,0.381,0.714,0.677,1.197,0.879c0.486,0.207,1.071,0.311,1.737,0.311
	c0.389,0,0.774-0.04,1.146-0.121c0.363-0.079,0.692-0.187,0.978-0.32c0.275-0.128,0.499-0.28,0.666-0.453
	c0.157-0.162,0.232-0.33,0.232-0.513c0-0.135-0.047-0.25-0.144-0.352c-0.096-0.102-0.219-0.148-0.375-0.148
	c-0.104,0-0.181,0.019-0.23,0.056c-0.073,0.053-0.189,0.131-0.346,0.227c-0.535,0.375-1.155,0.568-1.838,0.568
	c-0.512,0-0.952-0.077-1.308-0.23c-0.362-0.157-0.656-0.388-0.875-0.689c-0.215-0.294-0.371-0.652-0.463-1.063
	c-0.091-0.404-0.137-0.863-0.137-1.365v-3.801c0-0.502,0.046-0.962,0.137-1.367c0.092-0.409,0.248-0.768,0.463-1.062
	c0.218-0.299,0.512-0.531,0.875-0.688c0.356-0.154,0.796-0.231,1.308-0.231c0.683,0,1.303,0.192,1.843,0.571
	c0.141,0.093,0.251,0.17,0.328,0.223c0.056,0.038,0.138,0.057,0.243,0.057c0.156,0,0.279-0.048,0.375-0.147
	c0.097-0.104,0.144-0.218,0.144-0.354c0-0.182-0.075-0.35-0.232-0.512c-0.165-0.17-0.389-0.323-0.667-0.455
	c-0.278-0.129-0.608-0.235-0.977-0.319C8.743,68.452,8.358,68.411,7.969,68.411 M7.969,81.263c-0.698,0-1.314-0.112-1.83-0.33
	c-0.518-0.218-0.952-0.537-1.289-0.948c-0.336-0.408-0.588-0.903-0.751-1.472c-0.161-0.565-0.244-1.202-0.244-1.896v-3.801
	c0-0.693,0.083-1.331,0.244-1.896c0.164-0.568,0.416-1.063,0.751-1.472s0.769-0.728,1.289-0.948c0.516-0.218,1.132-0.33,1.83-0.33
	c0.406,0,0.809,0.044,1.197,0.128c0.387,0.085,0.733,0.199,1.028,0.336c0.304,0.145,0.553,0.314,0.736,0.506
	c0.2,0.205,0.301,0.434,0.301,0.677c0,0.197-0.071,0.372-0.211,0.519c-0.142,0.147-0.326,0.223-0.548,0.223
	c-0.155,0-0.283-0.035-0.379-0.101c-0.076-0.054-0.185-0.126-0.327-0.222c-0.501-0.352-1.075-0.529-1.708-0.529
	c-0.48,0-0.887,0.069-1.213,0.212c-0.328,0.142-0.582,0.341-0.776,0.608c-0.197,0.27-0.339,0.597-0.424,0.976
	c-0.086,0.387-0.13,0.829-0.13,1.313v3.801c0,0.484,0.044,0.927,0.13,1.313c0.085,0.38,0.227,0.707,0.424,0.977
	c0.193,0.267,0.454,0.471,0.776,0.608c0.326,0.142,0.733,0.212,1.213,0.212c0.633,0,1.207-0.178,1.706-0.527
	c0.155-0.097,0.265-0.168,0.334-0.222c0.092-0.069,0.217-0.103,0.374-0.103c0.222,0,0.407,0.076,0.548,0.224
	c0.139,0.146,0.211,0.32,0.211,0.517c0,0.245-0.101,0.473-0.301,0.678c-0.186,0.195-0.435,0.365-0.736,0.506
	c-0.302,0.14-0.647,0.254-1.028,0.336C8.778,81.22,8.375,81.263,7.969,81.263"/>
<path fill="#29295F" d="M18.175,69.676c-0.486,0-0.897,0.076-1.234,0.23c-0.337,0.153-0.612,0.367-0.825,0.64
	s-0.367,0.601-0.462,0.985c-0.095,0.385-0.141,0.813-0.141,1.285v3.801c0,0.933,0.215,1.695,0.647,2.279
	c0.432,0.586,1.104,0.879,2.015,0.879s1.582-0.293,2.015-0.879c0.431-0.584,0.647-1.347,0.647-2.279v-3.801
	c0-0.473-0.047-0.9-0.141-1.285c-0.095-0.385-0.249-0.713-0.462-0.985s-0.489-0.486-0.825-0.64
	C19.072,69.752,18.66,69.676,18.175,69.676 M18.175,81.161c-0.675,0-1.269-0.118-1.784-0.355c-0.515-0.236-0.941-0.559-1.278-0.968
	c-0.337-0.408-0.592-0.889-0.763-1.446c-0.172-0.556-0.258-1.146-0.258-1.773v-3.801c0-0.614,0.074-1.196,0.222-1.748
	c0.148-0.549,0.388-1.028,0.719-1.438c0.332-0.408,0.754-0.732,1.269-0.976s1.139-0.364,1.873-0.364s1.358,0.121,1.872,0.364
	c0.516,0.243,0.938,0.567,1.27,0.976c0.331,0.409,0.57,0.889,0.719,1.438c0.148,0.552,0.222,1.134,0.222,1.748v3.801
	c0,0.627-0.087,1.218-0.258,1.773c-0.172,0.558-0.425,1.038-0.763,1.446c-0.337,0.409-0.763,0.731-1.278,0.968
	C19.444,81.042,18.85,81.161,18.175,81.161"/>
<path fill="#29295F" d="M18.175,69.796c-0.467,0-0.865,0.073-1.184,0.219c-0.318,0.146-0.581,0.349-0.781,0.604
	c-0.202,0.259-0.35,0.574-0.44,0.94c-0.092,0.372-0.138,0.795-0.138,1.257v3.801c0,0.903,0.21,1.647,0.625,2.207
	c0.406,0.554,1.052,0.832,1.918,0.832c0.865,0,1.511-0.278,1.918-0.832c0.415-0.562,0.625-1.304,0.625-2.207v-3.801
	c0-0.459-0.046-0.882-0.138-1.257c-0.09-0.366-0.238-0.682-0.44-0.94c-0.2-0.256-0.463-0.459-0.781-0.604
	C19.041,69.87,18.642,69.796,18.175,69.796 M18.175,79.896c-0.946,0-1.657-0.313-2.111-0.928c-0.446-0.603-0.671-1.394-0.671-2.351
	v-3.801c0-0.481,0.049-0.924,0.145-1.313c0.098-0.398,0.261-0.745,0.484-1.03c0.224-0.286,0.516-0.514,0.87-0.675
	c0.35-0.161,0.782-0.242,1.283-0.242s0.933,0.081,1.283,0.242c0.354,0.161,0.646,0.389,0.871,0.675
	c0.222,0.285,0.385,0.632,0.483,1.03c0.096,0.393,0.145,0.835,0.145,1.313v3.801c0,0.955-0.225,1.746-0.671,2.351
	C19.832,79.583,19.121,79.896,18.175,79.896 M18.175,68.412c-0.713,0-1.325,0.118-1.821,0.351c-0.496,0.236-0.909,0.551-1.228,0.944
	c-0.319,0.395-0.554,0.864-0.697,1.394c-0.144,0.539-0.217,1.116-0.217,1.717v3.801c0,0.612,0.085,1.197,0.252,1.737
	c0.165,0.539,0.415,1.013,0.741,1.406c0.324,0.394,0.739,0.708,1.236,0.935c0.497,0.229,1.079,0.345,1.734,0.345
	c0.655,0,1.237-0.115,1.734-0.345c0.496-0.227,0.912-0.541,1.235-0.935c0.326-0.392,0.575-0.866,0.742-1.406
	c0.167-0.543,0.252-1.128,0.252-1.737v-3.801c0-0.601-0.073-1.178-0.217-1.717c-0.144-0.529-0.378-0.999-0.697-1.394
	c-0.319-0.394-0.732-0.708-1.227-0.944C19.5,68.53,18.888,68.412,18.175,68.412 M18.175,81.28c-0.689,0-1.306-0.123-1.834-0.365
	c-0.53-0.243-0.973-0.58-1.32-1c-0.347-0.419-0.611-0.919-0.786-1.487c-0.174-0.563-0.263-1.174-0.263-1.81v-3.801
	c0-0.621,0.077-1.22,0.227-1.778c0.151-0.563,0.401-1.062,0.742-1.482c0.341-0.42,0.782-0.761,1.311-1.008
	c0.528-0.251,1.175-0.377,1.923-0.377s1.395,0.126,1.924,0.377c0.528,0.247,0.969,0.588,1.31,1.008
	c0.341,0.421,0.59,0.919,0.742,1.482c0.15,0.559,0.227,1.157,0.227,1.778v3.801c0,0.635-0.089,1.242-0.263,1.81
	c-0.176,0.57-0.441,1.069-0.786,1.487c-0.347,0.42-0.79,0.757-1.32,1C19.481,81.157,18.864,81.28,18.175,81.28"/>
<path fill="#29295F" d="M32.5,72.019c0-0.26-0.037-0.521-0.104-0.781c-0.072-0.261-0.201-0.491-0.383-0.691
	c-0.185-0.202-0.443-0.367-0.772-0.498c-0.334-0.13-0.755-0.194-1.261-0.194h-2.414v4.26h2.519c0.781,0,1.379-0.178,1.793-0.531
	C32.292,73.227,32.5,72.706,32.5,72.019 M33.92,72.019c0,0.946-0.246,1.704-0.737,2.272c-0.492,0.568-1.162,0.934-2.015,1.101
	l2.839,4.668c0.059,0.118,0.09,0.255,0.09,0.408c0,0.189-0.093,0.35-0.273,0.479c-0.184,0.132-0.348,0.196-0.488,0.196
	c-0.262,0-0.458-0.113-0.586-0.337l-3.145-5.325h-2.039v4.934c0,0.201-0.071,0.377-0.215,0.523c-0.14,0.148-0.314,0.223-0.513,0.223
	c-0.19,0-0.352-0.074-0.489-0.223c-0.137-0.146-0.204-0.322-0.204-0.523V69.321c0-0.236,0.079-0.437,0.24-0.604
	c0.16-0.165,0.353-0.249,0.577-0.249h3.088c0.735,0,1.346,0.104,1.838,0.312c0.491,0.207,0.887,0.477,1.188,0.809
	c0.302,0.33,0.517,0.709,0.647,1.136C33.855,71.149,33.92,71.583,33.92,72.019"/>
<path fill="#29295F" d="M27.686,73.995h2.399c0.749,0,1.324-0.17,1.715-0.504c0.385-0.33,0.581-0.825,0.581-1.472
	c0-0.243-0.033-0.489-0.103-0.752c-0.064-0.237-0.185-0.455-0.354-0.64c-0.169-0.188-0.414-0.344-0.729-0.469
	c-0.316-0.122-0.727-0.186-1.216-0.186h-2.293V73.995z M30.085,74.235h-2.638v-4.5h2.532c0.519,0,0.957,0.067,1.304,0.201
	c0.351,0.139,0.625,0.318,0.818,0.529c0.195,0.215,0.333,0.464,0.409,0.741c0.073,0.278,0.11,0.553,0.11,0.813
	c0,0.72-0.225,1.276-0.664,1.653C31.523,74.045,30.892,74.235,30.085,74.235 M26.963,68.588c-0.192,0-0.353,0.07-0.492,0.213
	c-0.139,0.145-0.206,0.313-0.206,0.52v11.095c0,0.174,0.056,0.316,0.171,0.441c0.24,0.255,0.604,0.236,0.829-0.002
	c0.122-0.126,0.182-0.269,0.182-0.439v-5.054h2.227l0.034,0.059l3.144,5.325c0.108,0.188,0.265,0.277,0.483,0.277
	c0.113,0,0.259-0.059,0.42-0.174c0.15-0.108,0.223-0.231,0.223-0.381c0-0.133-0.025-0.251-0.076-0.354l-2.925-4.806l0.169-0.032
	c0.832-0.164,1.469-0.512,1.946-1.063c0.47-0.543,0.708-1.282,0.708-2.194c0-0.425-0.063-0.849-0.189-1.26
	c-0.127-0.409-0.334-0.776-0.623-1.091c-0.289-0.317-0.675-0.58-1.146-0.778c-0.477-0.201-1.078-0.302-1.79-0.302H26.963z
	 M26.838,81.28c-0.222,0-0.416-0.089-0.577-0.261c-0.155-0.167-0.235-0.371-0.235-0.604V69.321c0-0.268,0.091-0.498,0.273-0.686
	c0.184-0.189,0.408-0.287,0.664-0.287h3.088c0.744,0,1.377,0.109,1.883,0.321c0.504,0.212,0.918,0.495,1.231,0.837
	c0.311,0.343,0.537,0.74,0.673,1.182c0.134,0.435,0.202,0.883,0.202,1.331c0,0.972-0.258,1.763-0.768,2.351
	c-0.474,0.548-1.117,0.918-1.914,1.104l2.75,4.525c0.074,0.144,0.109,0.3,0.109,0.47c0,0.228-0.109,0.423-0.325,0.575
	c-0.202,0.146-0.391,0.22-0.558,0.22c-0.303,0-0.541-0.139-0.689-0.399L29.537,75.6h-1.851v4.815c0,0.232-0.084,0.437-0.249,0.606
	C27.278,81.19,27.07,81.28,26.838,81.28"/>
<path fill="#29295F" d="M39.955,76.776h3.656l-1.826-6.016L39.955,76.776z M38.783,80.628c-0.059,0.165-0.154,0.296-0.283,0.391
	c-0.131,0.095-0.26,0.142-0.391,0.142c-0.201,0-0.375-0.065-0.523-0.194c-0.148-0.131-0.221-0.302-0.221-0.515
	c0-0.036,0.002-0.084,0.008-0.143s0.015-0.101,0.026-0.125l3.462-10.952c0.083-0.271,0.191-0.498,0.328-0.675
	c0.137-0.178,0.334-0.266,0.596-0.266c0.271,0,0.473,0.088,0.602,0.266c0.131,0.177,0.242,0.403,0.338,0.675l3.462,10.952
	c0.011,0.024,0.021,0.066,0.026,0.125c0.007,0.059,0.01,0.106,0.01,0.143c0,0.213-0.072,0.384-0.215,0.515
	c-0.143,0.129-0.319,0.194-0.531,0.194c-0.131,0-0.268-0.047-0.409-0.142s-0.237-0.226-0.284-0.391l-0.764-2.468h-4.49
	L38.783,80.628z"/>
<path fill="#29295F" d="M40.117,76.655h3.334l-1.666-5.484L40.117,76.655z M43.773,76.895h-3.979l1.99-6.547L43.773,76.895z
	 M39.441,78.042h4.666l0.791,2.551c0.039,0.143,0.116,0.248,0.235,0.327c0.12,0.081,0.235,0.121,0.343,0.121
	c0.182,0,0.33-0.052,0.452-0.163c0.117-0.107,0.175-0.248,0.175-0.428c0-0.031-0.004-0.073-0.01-0.129
	c-0.007-0.064-0.016-0.084-0.016-0.086l-3.467-10.967c-0.09-0.258-0.199-0.474-0.32-0.64c-0.107-0.147-0.271-0.217-0.506-0.217
	c-0.225,0-0.387,0.07-0.5,0.219c-0.127,0.164-0.23,0.378-0.31,0.637L37.513,80.22c-0.009,0.022-0.015,0.039-0.021,0.101
	c-0.006,0.056-0.008,0.098-0.008,0.129c0,0.18,0.059,0.318,0.181,0.426c0.127,0.113,0.272,0.165,0.444,0.165
	c0.106,0,0.211-0.039,0.321-0.118c0.108-0.079,0.188-0.191,0.239-0.331L39.441,78.042z M45.476,81.28
	c-0.156,0-0.316-0.054-0.476-0.162c-0.165-0.111-0.277-0.264-0.332-0.456l-0.737-2.38h-4.314l-0.721,2.387
	c-0.068,0.187-0.177,0.338-0.326,0.447c-0.371,0.268-0.775,0.189-1.063-0.06c-0.175-0.151-0.264-0.356-0.264-0.606
	c0-0.037,0.004-0.09,0.011-0.153c0.008-0.082,0.021-0.132,0.039-0.168l3.454-10.931c0.087-0.287,0.203-0.526,0.347-0.713
	c0.159-0.207,0.392-0.313,0.69-0.313c0.311,0,0.546,0.106,0.699,0.315c0.135,0.185,0.254,0.422,0.354,0.707l3.462,10.954
	c0.013,0.022,0.024,0.075,0.032,0.148c0.007,0.063,0.01,0.116,0.01,0.153c0,0.246-0.084,0.449-0.252,0.604
	C45.923,81.205,45.716,81.28,45.476,81.28"/>
<path fill="#29295F" d="M56.213,80.291c0,0.202-0.065,0.366-0.196,0.498c-0.129,0.129-0.29,0.194-0.48,0.194h-5.004
	c-0.213,0-0.399-0.076-0.56-0.23c-0.159-0.154-0.239-0.344-0.239-0.568V69.002c0-0.19,0.068-0.356,0.205-0.498
	c0.135-0.141,0.303-0.213,0.506-0.213c0.2,0,0.368,0.072,0.506,0.213c0.136,0.142,0.203,0.308,0.203,0.498v10.613h4.383
	c0.179,0,0.336,0.065,0.473,0.195C56.145,79.941,56.213,80.102,56.213,80.291"/>
<path fill="#29295F" d="M50.445,68.411c-0.169,0-0.307,0.058-0.42,0.176c-0.116,0.121-0.172,0.256-0.172,0.416v11.183
	c0,0.19,0.066,0.35,0.203,0.481c0.138,0.133,0.293,0.196,0.478,0.196h5.004c0.158,0,0.287-0.051,0.396-0.159
	c0.107-0.108,0.16-0.244,0.16-0.414c0-0.154-0.055-0.284-0.168-0.394c-0.113-0.106-0.242-0.16-0.388-0.16h-4.503V69.002
	c0-0.158-0.055-0.295-0.17-0.416C50.75,68.468,50.612,68.411,50.445,68.411 M55.538,81.103h-5.004c-0.245,0-0.462-0.089-0.644-0.265
	c-0.184-0.178-0.276-0.397-0.276-0.653V69.002c0-0.222,0.081-0.418,0.239-0.58c0.158-0.167,0.357-0.251,0.592-0.251
	c0.232,0,0.432,0.084,0.592,0.251c0.157,0.164,0.238,0.358,0.238,0.58v10.494h4.263c0.208,0,0.394,0.076,0.554,0.228
	c0.16,0.155,0.241,0.345,0.241,0.565c0,0.234-0.077,0.431-0.231,0.584C55.95,81.025,55.759,81.103,55.538,81.103"/>
<path fill="#29295F" d="M10.33,98.326c0-0.261-0.035-0.521-0.105-0.781c-0.072-0.26-0.2-0.491-0.383-0.69
	c-0.184-0.203-0.441-0.369-0.772-0.498c-0.332-0.131-0.752-0.195-1.26-0.195H5.396v4.26h2.52c0.782,0,1.379-0.177,1.793-0.532
	C10.123,99.534,10.33,99.011,10.33,98.326 M11.75,98.326c0,0.946-0.246,1.704-0.736,2.271c-0.492,0.569-1.163,0.936-2.014,1.102
	l2.839,4.668c0.059,0.118,0.088,0.255,0.088,0.407c0,0.19-0.091,0.351-0.273,0.479c-0.184,0.131-0.348,0.196-0.489,0.196
	c-0.26,0-0.456-0.113-0.586-0.337l-3.142-5.325H5.396v4.934c0,0.201-0.071,0.377-0.213,0.523c-0.142,0.147-0.315,0.223-0.515,0.223
	c-0.189,0-0.352-0.075-0.487-0.223c-0.137-0.146-0.206-0.322-0.206-0.523V95.627c0-0.236,0.081-0.438,0.24-0.604
	c0.16-0.166,0.353-0.248,0.577-0.248H7.88c0.735,0,1.347,0.104,1.839,0.311c0.49,0.207,0.887,0.477,1.189,0.809
	c0.3,0.33,0.517,0.709,0.647,1.136C11.685,97.456,11.75,97.888,11.75,98.326"/>
<path fill="#29295F" d="M5.516,100.301h2.4c0.749,0,1.326-0.17,1.716-0.504c0.384-0.329,0.579-0.824,0.579-1.472
	c0-0.247-0.034-0.499-0.101-0.751c-0.067-0.238-0.186-0.456-0.356-0.641c-0.17-0.188-0.415-0.344-0.728-0.469
	C8.708,96.343,8.3,96.28,7.811,96.28H5.516V100.301z M7.916,100.542H5.277v-4.5h2.534c0.519,0,0.957,0.067,1.303,0.201
	c0.353,0.141,0.62,0.313,0.817,0.529c0.195,0.215,0.333,0.464,0.409,0.741c0.073,0.271,0.111,0.546,0.111,0.813
	c0,0.72-0.224,1.276-0.664,1.653C9.353,100.352,8.724,100.542,7.916,100.542 M4.793,94.895c-0.192,0-0.353,0.07-0.492,0.213
	c-0.139,0.145-0.206,0.314-0.206,0.52v11.095c0,0.169,0.058,0.319,0.173,0.441c0.114,0.124,0.245,0.184,0.4,0.184
	c0.169,0,0.309-0.062,0.429-0.186c0.12-0.125,0.18-0.271,0.18-0.439v-5.056h2.229l0.034,0.061l3.142,5.324
	c0.109,0.188,0.267,0.278,0.483,0.278c0.116,0,0.258-0.057,0.42-0.174c0.15-0.106,0.223-0.231,0.223-0.381
	c0-0.135-0.026-0.254-0.076-0.354l-2.924-4.806l0.169-0.032c0.821-0.162,1.476-0.519,1.947-1.063
	c0.469-0.545,0.706-1.282,0.706-2.194c0-0.424-0.063-0.847-0.189-1.261c-0.124-0.405-0.334-0.771-0.622-1.09
	c-0.288-0.317-0.673-0.579-1.147-0.778c-0.475-0.201-1.078-0.302-1.791-0.302H4.793z M4.668,107.586
	c-0.223,0-0.416-0.089-0.575-0.262c-0.157-0.168-0.237-0.37-0.237-0.603V95.627c0-0.266,0.091-0.496,0.273-0.687
	c0.184-0.188,0.407-0.286,0.664-0.286h3.088c0.745,0,1.379,0.109,1.885,0.321c0.505,0.213,0.919,0.495,1.231,0.837
	c0.312,0.346,0.538,0.743,0.673,1.182c0.132,0.438,0.2,0.885,0.2,1.331c0,0.972-0.257,1.761-0.766,2.351
	c-0.474,0.548-1.117,0.918-1.914,1.104l2.751,4.524c0.072,0.144,0.107,0.299,0.107,0.471c0,0.229-0.11,0.424-0.325,0.577
	c-0.203,0.145-0.391,0.218-0.558,0.218c-0.3,0-0.539-0.139-0.689-0.399l-3.107-5.264H5.516v4.815c0,0.232-0.083,0.437-0.247,0.604
	C5.104,107.5,4.902,107.586,4.668,107.586"/>
<path fill="#29295F" d="M22.133,106.561c0,0.202-0.068,0.374-0.204,0.515c-0.137,0.143-0.305,0.214-0.506,0.214H16.72
	c-0.295,0-0.557-0.06-0.781-0.178c-0.224-0.117-0.338-0.338-0.338-0.656V95.609c0-0.201,0.081-0.389,0.24-0.567
	c0.16-0.178,0.358-0.267,0.595-0.267h4.811c0.201,0,0.369,0.068,0.506,0.205c0.135,0.136,0.204,0.304,0.204,0.506
	c0,0.201-0.069,0.363-0.204,0.488c-0.137,0.124-0.305,0.187-0.506,0.187h-4.225v4.152h3.887c0.177,0,0.338,0.064,0.479,0.196
	c0.142,0.131,0.214,0.296,0.214,0.497s-0.066,0.367-0.196,0.496c-0.13,0.131-0.296,0.195-0.497,0.195h-3.887v4.208h4.402
	c0.189,0,0.355,0.064,0.497,0.194C22.062,106.231,22.133,106.384,22.133,106.561"/>
<path fill="#29295F" d="M16.435,94.895c-0.202,0-0.368,0.073-0.506,0.226c-0.14,0.159-0.208,0.319-0.208,0.489v10.846
	c0,0.273,0.089,0.454,0.274,0.551c0.205,0.109,0.45,0.163,0.725,0.163h4.704c0.167,0,0.305-0.058,0.42-0.176
	c0.115-0.119,0.17-0.261,0.17-0.433c0-0.142-0.057-0.265-0.174-0.373c-0.12-0.109-0.255-0.162-0.416-0.162h-4.522v-4.447h4.007
	c0.17,0,0.305-0.053,0.411-0.16c0.109-0.107,0.162-0.243,0.162-0.413c0-0.166-0.057-0.3-0.175-0.409
	c-0.12-0.111-0.25-0.163-0.398-0.163h-4.007v-4.393h4.345c0.171,0,0.31-0.051,0.425-0.156c0.111-0.101,0.164-0.231,0.164-0.397
	c0-0.17-0.055-0.309-0.168-0.422c-0.115-0.113-0.253-0.17-0.421-0.17H16.435z M21.424,107.41H16.72
	c-0.315,0-0.597-0.065-0.837-0.191c-0.266-0.141-0.402-0.396-0.402-0.763V95.61c0-0.228,0.091-0.445,0.27-0.648
	c0.184-0.204,0.414-0.306,0.684-0.306h4.812c0.231,0,0.431,0.081,0.59,0.241c0.158,0.158,0.239,0.356,0.239,0.59
	c0,0.232-0.082,0.426-0.243,0.576c-0.159,0.145-0.356,0.218-0.586,0.218h-4.105v3.913h3.767c0.208,0,0.397,0.076,0.56,0.229
	c0.167,0.154,0.252,0.35,0.252,0.583c0,0.234-0.078,0.43-0.232,0.582c-0.151,0.153-0.346,0.231-0.58,0.231h-3.767v3.967h4.282
	c0.22,0,0.415,0.076,0.577,0.228c0.168,0.154,0.253,0.338,0.253,0.548c0,0.232-0.081,0.433-0.238,0.598
	C21.856,107.326,21.657,107.41,21.424,107.41"/>
<path fill="#29295F" d="M33.033,106.561c0,0.202-0.068,0.374-0.204,0.515c-0.138,0.143-0.306,0.214-0.507,0.214h-4.703
	c-0.295,0-0.557-0.06-0.781-0.178c-0.224-0.117-0.338-0.338-0.338-0.656V95.609c0-0.201,0.081-0.389,0.24-0.567
	c0.16-0.178,0.358-0.267,0.595-0.267h4.812c0.2,0,0.369,0.068,0.506,0.205c0.135,0.136,0.203,0.304,0.203,0.506
	c0,0.201-0.068,0.363-0.203,0.488c-0.137,0.124-0.306,0.187-0.506,0.187H27.92v4.152h3.888c0.178,0,0.338,0.064,0.479,0.196
	c0.142,0.131,0.214,0.296,0.214,0.497s-0.065,0.367-0.196,0.496c-0.13,0.131-0.296,0.195-0.496,0.195H27.92v4.208h4.401
	c0.189,0,0.355,0.064,0.498,0.194C32.96,106.231,33.033,106.384,33.033,106.561"/>
<path fill="#29295F" d="M27.333,94.895c-0.202,0-0.368,0.073-0.506,0.226c-0.14,0.159-0.208,0.319-0.208,0.489v10.846
	c0,0.273,0.089,0.454,0.274,0.551c0.205,0.109,0.45,0.163,0.725,0.163h4.704c0.167,0,0.306-0.058,0.42-0.176
	c0.115-0.119,0.17-0.261,0.17-0.433c0-0.142-0.057-0.265-0.174-0.373c-0.12-0.109-0.255-0.162-0.416-0.162h-4.522v-4.447h4.007
	c0.17,0,0.305-0.053,0.41-0.16c0.109-0.107,0.162-0.243,0.162-0.413c0-0.166-0.057-0.3-0.175-0.409
	c-0.12-0.111-0.25-0.163-0.397-0.163h-4.007v-4.393h4.345c0.171,0,0.31-0.051,0.425-0.156c0.11-0.101,0.164-0.231,0.164-0.397
	c0-0.17-0.056-0.309-0.168-0.422c-0.115-0.113-0.253-0.17-0.421-0.17H27.333z M32.323,107.41h-4.704
	c-0.315,0-0.597-0.065-0.837-0.191c-0.266-0.141-0.402-0.396-0.402-0.763V95.61c0-0.228,0.091-0.445,0.27-0.648
	c0.184-0.204,0.414-0.306,0.684-0.306h4.813c0.23,0,0.431,0.081,0.59,0.241c0.158,0.158,0.238,0.356,0.238,0.59
	c0,0.232-0.082,0.426-0.242,0.576c-0.159,0.145-0.356,0.218-0.586,0.218h-4.105v3.913h3.768c0.207,0,0.396,0.076,0.56,0.229
	c0.167,0.154,0.252,0.35,0.252,0.583c0,0.234-0.078,0.43-0.231,0.582c-0.151,0.153-0.347,0.231-0.58,0.231h-3.768v3.967h4.282
	c0.22,0,0.415,0.076,0.577,0.228c0.168,0.154,0.253,0.338,0.253,0.548c0,0.232-0.081,0.433-0.238,0.598
	C32.755,107.326,32.556,107.41,32.323,107.41"/>
<path fill="#29295F" d="M39.743,106.757c0,0.19-0.067,0.354-0.204,0.496s-0.305,0.214-0.506,0.214c-0.202,0-0.37-0.072-0.506-0.214
	c-0.137-0.142-0.205-0.306-0.205-0.496V95.61c0-0.201,0.081-0.39,0.24-0.568c0.16-0.178,0.357-0.266,0.594-0.266h4.811
	c0.201,0,0.369,0.067,0.506,0.204c0.137,0.136,0.205,0.305,0.205,0.507c0,0.2-0.068,0.362-0.205,0.486
	c-0.137,0.125-0.305,0.188-0.506,0.188h-4.224v4.152h3.888c0.176,0,0.336,0.065,0.479,0.196s0.213,0.296,0.213,0.497
	c0,0.2-0.064,0.367-0.195,0.496c-0.13,0.131-0.297,0.195-0.496,0.195h-3.888V106.757z"/>
<path fill="#29295F" d="M39.156,94.895c-0.201,0-0.367,0.073-0.506,0.226c-0.141,0.158-0.208,0.319-0.208,0.488v11.147
	c0,0.16,0.056,0.295,0.171,0.414c0.114,0.119,0.251,0.177,0.42,0.177c0.167,0,0.305-0.058,0.42-0.177s0.17-0.254,0.17-0.414v-5.178
	h4.006c0.172,0,0.306-0.053,0.412-0.16c0.109-0.107,0.162-0.242,0.162-0.412c0-0.168-0.058-0.302-0.175-0.409
	c-0.12-0.111-0.251-0.164-0.399-0.164h-4.006v-4.392h4.344c0.172,0,0.312-0.053,0.427-0.156c0.11-0.102,0.164-0.232,0.164-0.399
	c0-0.169-0.056-0.308-0.169-0.421c-0.114-0.114-0.252-0.17-0.422-0.17H39.156z M39.033,107.586c-0.234,0-0.433-0.084-0.592-0.25
	c-0.158-0.164-0.238-0.358-0.238-0.58V95.609c0-0.228,0.09-0.445,0.27-0.647c0.184-0.203,0.414-0.307,0.684-0.307h4.811
	c0.232,0,0.432,0.081,0.592,0.242c0.158,0.158,0.238,0.355,0.238,0.589c0,0.234-0.082,0.427-0.242,0.576
	c-0.159,0.146-0.356,0.218-0.588,0.218h-4.104v3.913h3.766c0.209,0,0.397,0.077,0.562,0.229c0.167,0.153,0.252,0.351,0.252,0.584
	c0,0.232-0.079,0.43-0.231,0.582c-0.151,0.152-0.347,0.229-0.582,0.229h-3.766v4.938c0,0.221-0.08,0.414-0.238,0.58
	C39.464,107.502,39.266,107.586,39.033,107.586"/>
<path fill="#29295F" d="M3.975,125.605c0-0.685,0.079-1.307,0.24-1.862c0.16-0.557,0.401-1.032,0.728-1.43
	c0.325-0.396,0.74-0.699,1.242-0.914c0.503-0.213,1.098-0.319,1.784-0.319c0.402,0,0.792,0.042,1.172,0.124
	c0.378,0.084,0.713,0.192,1.003,0.328c0.289,0.137,0.523,0.295,0.7,0.479c0.177,0.185,0.266,0.381,0.266,0.595
	c0,0.166-0.059,0.312-0.177,0.437c-0.119,0.122-0.273,0.185-0.461,0.185c-0.131,0-0.234-0.027-0.311-0.08
	c-0.077-0.052-0.186-0.127-0.329-0.222c-0.52-0.366-1.111-0.55-1.774-0.55c-0.497,0-0.917,0.074-1.261,0.221
	c-0.342,0.15-0.618,0.364-0.825,0.648c-0.207,0.285-0.355,0.625-0.444,1.021c-0.088,0.397-0.133,0.844-0.133,1.34v3.8
	c0,0.496,0.045,0.943,0.133,1.34c0.089,0.396,0.237,0.736,0.444,1.02c0.207,0.285,0.483,0.502,0.825,0.649
	c0.344,0.147,0.764,0.222,1.261,0.222c0.663,0,1.254-0.184,1.774-0.55c0.154-0.095,0.266-0.17,0.338-0.224
	c0.072-0.052,0.171-0.078,0.302-0.078c0.188,0,0.342,0.062,0.461,0.187c0.118,0.123,0.177,0.269,0.177,0.435
	c0,0.213-0.089,0.41-0.266,0.595c-0.177,0.183-0.411,0.344-0.7,0.479c-0.29,0.136-0.625,0.246-1.003,0.328
	c-0.38,0.083-0.77,0.125-1.172,0.125c-0.686,0-1.281-0.106-1.784-0.321c-0.502-0.211-0.917-0.516-1.242-0.912
	c-0.327-0.397-0.568-0.873-0.728-1.43c-0.161-0.556-0.24-1.177-0.24-1.863V125.605z"/>
<path fill="#29295F" d="M7.969,121.199c-0.666,0-1.251,0.104-1.737,0.312c-0.484,0.206-0.887,0.501-1.196,0.879
	c-0.313,0.38-0.551,0.846-0.706,1.386c-0.157,0.541-0.235,1.156-0.235,1.83v3.8c0,0.674,0.078,1.289,0.235,1.83
	c0.157,0.547,0.387,1,0.706,1.387c0.312,0.381,0.714,0.677,1.196,0.879c0.486,0.207,1.071,0.311,1.737,0.311
	c0.389,0,0.774-0.04,1.146-0.121c0.365-0.079,0.694-0.188,0.978-0.32c0.274-0.128,0.497-0.28,0.665-0.453
	c0.157-0.162,0.232-0.33,0.232-0.513c0-0.135-0.046-0.25-0.144-0.352c-0.095-0.102-0.218-0.149-0.374-0.149
	c-0.103,0-0.181,0.02-0.231,0.057c-0.073,0.055-0.189,0.131-0.346,0.227c-0.533,0.375-1.153,0.568-1.837,0.568
	c-0.512,0-0.952-0.077-1.309-0.23c-0.361-0.157-0.655-0.389-0.874-0.689c-0.215-0.295-0.371-0.652-0.463-1.063
	c-0.091-0.406-0.137-0.865-0.137-1.366v-3.8c0-0.501,0.046-0.96,0.137-1.367c0.092-0.409,0.248-0.768,0.463-1.062
	c0.217-0.299,0.511-0.531,0.874-0.688c0.357-0.155,0.797-0.231,1.309-0.231c0.684,0,1.304,0.192,1.843,0.57
	c0.141,0.094,0.251,0.17,0.328,0.224c0.056,0.038,0.138,0.057,0.243,0.057c0.156,0,0.279-0.048,0.374-0.147
	c0.098-0.104,0.144-0.219,0.144-0.354c0-0.182-0.075-0.35-0.232-0.512c-0.165-0.17-0.389-0.323-0.666-0.455
	c-0.277-0.129-0.606-0.236-0.977-0.319C8.743,121.239,8.358,121.199,7.969,121.199 M7.969,134.051c-0.698,0-1.314-0.112-1.83-0.33
	c-0.518-0.219-0.951-0.537-1.289-0.948c-0.333-0.406-0.586-0.901-0.751-1.472c-0.161-0.563-0.244-1.2-0.244-1.896v-3.8
	c0-0.695,0.083-1.334,0.244-1.896c0.165-0.572,0.418-1.067,0.751-1.473c0.335-0.408,0.769-0.727,1.289-0.947
	c0.516-0.219,1.132-0.33,1.83-0.33c0.405,0,0.809,0.043,1.198,0.127c0.388,0.086,0.734,0.199,1.027,0.337
	c0.304,0.145,0.551,0.313,0.735,0.506c0.2,0.205,0.301,0.433,0.301,0.677c0,0.197-0.071,0.372-0.211,0.518
	c-0.142,0.148-0.326,0.224-0.547,0.224c-0.156,0-0.28-0.033-0.378-0.101c-0.077-0.054-0.186-0.127-0.328-0.222
	c-0.5-0.352-1.074-0.53-1.708-0.53c-0.48,0-0.887,0.07-1.214,0.213c-0.323,0.14-0.584,0.346-0.775,0.608
	c-0.197,0.269-0.339,0.597-0.424,0.976c-0.087,0.39-0.131,0.832-0.131,1.313v3.8c0,0.482,0.044,0.924,0.131,1.313
	c0.085,0.38,0.227,0.707,0.424,0.976c0.193,0.266,0.454,0.471,0.775,0.609c0.327,0.142,0.734,0.212,1.214,0.212
	c0.634,0,1.208-0.179,1.706-0.528c0.155-0.096,0.265-0.17,0.335-0.221c0.093-0.069,0.216-0.104,0.373-0.104
	c0.222,0,0.406,0.076,0.547,0.225c0.139,0.145,0.211,0.32,0.211,0.517c0,0.245-0.101,0.472-0.301,0.677
	c-0.187,0.195-0.435,0.365-0.735,0.506c-0.299,0.141-0.645,0.255-1.027,0.338C8.778,134.008,8.374,134.051,7.969,134.051"/>
<path fill="#29295F" d="M16.773,129.563h3.656l-1.827-6.015L16.773,129.563z M15.601,133.417c-0.059,0.164-0.154,0.295-0.283,0.391
	c-0.131,0.095-0.26,0.141-0.391,0.141c-0.201,0-0.375-0.064-0.523-0.193c-0.149-0.131-0.223-0.303-0.223-0.516
	c0-0.035,0.003-0.083,0.01-0.142c0.006-0.06,0.014-0.101,0.026-0.125l3.462-10.951c0.082-0.272,0.191-0.499,0.328-0.676
	c0.136-0.179,0.333-0.267,0.595-0.267c0.271,0,0.473,0.088,0.602,0.267c0.131,0.177,0.243,0.403,0.338,0.676l3.462,10.951
	c0.011,0.024,0.02,0.065,0.026,0.125c0.007,0.059,0.01,0.106,0.01,0.142c0,0.213-0.072,0.385-0.214,0.516
	c-0.143,0.129-0.32,0.193-0.532,0.193c-0.131,0-0.268-0.046-0.409-0.141c-0.142-0.096-0.237-0.227-0.284-0.391l-0.764-2.468h-4.49
	L15.601,133.417z"/>
<path fill="#29295F" d="M16.934,129.444h3.334l-1.666-5.486L16.934,129.444z M20.59,129.683h-3.978l1.99-6.546L20.59,129.683z
	 M16.258,130.829h4.667l0.791,2.552c0.039,0.142,0.116,0.248,0.236,0.327c0.119,0.08,0.235,0.121,0.342,0.121
	c0.182,0,0.33-0.053,0.452-0.164c0.117-0.106,0.174-0.247,0.174-0.427c0-0.032-0.003-0.073-0.009-0.129
	c-0.007-0.064-0.015-0.085-0.015-0.087l-3.468-10.966c-0.09-0.258-0.198-0.474-0.32-0.639c-0.107-0.148-0.272-0.218-0.506-0.218
	c-0.223,0-0.387,0.07-0.5,0.219c-0.127,0.164-0.23,0.378-0.309,0.637l-3.462,10.953c-0.009,0.021-0.015,0.039-0.021,0.101
	c-0.006,0.056-0.009,0.097-0.009,0.129c0,0.18,0.059,0.318,0.182,0.425c0.126,0.113,0.272,0.166,0.444,0.166
	c0.106,0,0.21-0.039,0.321-0.118c0.108-0.079,0.189-0.191,0.239-0.331L16.258,130.829z M22.294,134.068
	c-0.156,0-0.316-0.054-0.476-0.162c-0.165-0.111-0.277-0.265-0.332-0.456l-0.737-2.381h-4.314l-0.721,2.387
	c-0.068,0.188-0.177,0.339-0.326,0.447c-0.372,0.269-0.777,0.19-1.063-0.059c-0.175-0.153-0.264-0.357-0.264-0.606
	c0-0.038,0.004-0.09,0.011-0.153c0.008-0.082,0.02-0.133,0.039-0.168l3.454-10.932c0.087-0.287,0.203-0.525,0.347-0.713
	c0.159-0.207,0.391-0.313,0.69-0.313c0.311,0,0.546,0.105,0.699,0.315c0.135,0.185,0.255,0.422,0.354,0.707l3.462,10.954
	c0.012,0.021,0.025,0.075,0.032,0.148c0.007,0.063,0.01,0.115,0.01,0.153c0,0.246-0.084,0.449-0.252,0.604
	C22.741,133.993,22.534,134.068,22.294,134.068"/>
<path fill="#29295F" d="M32.835,124.807c0-0.26-0.035-0.521-0.104-0.781c-0.072-0.261-0.2-0.491-0.383-0.691
	c-0.185-0.203-0.441-0.367-0.772-0.498c-0.332-0.13-0.752-0.194-1.26-0.194h-2.414v4.26h2.52c0.783,0,1.379-0.177,1.793-0.532
	C32.628,126.015,32.835,125.494,32.835,124.807 M34.255,124.807c0,0.945-0.246,1.704-0.735,2.271
	c-0.492,0.569-1.163,0.935-2.015,1.102l2.84,4.668c0.059,0.117,0.088,0.255,0.088,0.408c0,0.189-0.092,0.35-0.273,0.479
	c-0.184,0.131-0.348,0.196-0.488,0.196c-0.26,0-0.457-0.113-0.586-0.337l-3.143-5.325h-2.041v4.934c0,0.201-0.071,0.377-0.213,0.523
	c-0.142,0.147-0.314,0.223-0.515,0.223c-0.189,0-0.352-0.075-0.487-0.223c-0.137-0.146-0.206-0.322-0.206-0.523v-11.094
	c0-0.236,0.081-0.437,0.24-0.604c0.16-0.164,0.353-0.248,0.577-0.248h3.088c0.734,0,1.347,0.104,1.839,0.312
	c0.489,0.207,0.887,0.476,1.188,0.808c0.301,0.331,0.518,0.709,0.647,1.137C34.191,123.937,34.255,124.37,34.255,124.807"/>
<path fill="#29295F" d="M28.021,126.782h2.402c0.747,0,1.324-0.17,1.715-0.503c0.383-0.329,0.578-0.825,0.578-1.472
	c0-0.246-0.033-0.499-0.101-0.75c-0.065-0.24-0.187-0.457-0.356-0.643c-0.17-0.187-0.414-0.344-0.728-0.468
	c-0.317-0.122-0.726-0.186-1.216-0.186h-2.294V126.782z M30.423,127.022h-2.641v-4.5h2.533c0.52,0,0.957,0.068,1.304,0.202
	c0.353,0.14,0.62,0.313,0.817,0.529c0.195,0.215,0.332,0.464,0.408,0.741c0.073,0.271,0.111,0.545,0.111,0.813
	c0,0.72-0.225,1.275-0.663,1.653C31.859,126.833,31.23,127.022,30.423,127.022 M27.299,121.376c-0.192,0-0.353,0.069-0.492,0.213
	c-0.139,0.145-0.206,0.314-0.206,0.52v11.095c0,0.168,0.058,0.318,0.173,0.441c0.114,0.124,0.245,0.184,0.4,0.184
	c0.169,0,0.309-0.061,0.429-0.186c0.12-0.124,0.18-0.271,0.18-0.439v-5.055h2.229l0.034,0.059l3.142,5.326
	c0.109,0.188,0.268,0.277,0.483,0.277c0.116,0,0.259-0.057,0.421-0.174c0.149-0.106,0.223-0.23,0.223-0.381
	c0-0.135-0.026-0.254-0.076-0.355l-2.924-4.805l0.168-0.033c0.822-0.162,1.477-0.518,1.947-1.062
	c0.469-0.544,0.707-1.282,0.707-2.194c0-0.424-0.063-0.847-0.189-1.261c-0.124-0.405-0.334-0.772-0.622-1.091
	c-0.288-0.316-0.673-0.578-1.147-0.777c-0.475-0.201-1.078-0.302-1.791-0.302H27.299z M27.174,134.068
	c-0.223,0-0.416-0.089-0.575-0.261c-0.157-0.168-0.238-0.371-0.238-0.604v-11.095c0-0.266,0.092-0.496,0.274-0.686
	c0.184-0.19,0.407-0.287,0.664-0.287h3.087c0.744,0,1.379,0.108,1.885,0.321s0.92,0.494,1.231,0.838
	c0.312,0.345,0.538,0.742,0.673,1.181c0.133,0.437,0.2,0.884,0.2,1.331c0,0.971-0.257,1.762-0.766,2.35
	c-0.474,0.549-1.117,0.918-1.914,1.104l2.751,4.524c0.072,0.144,0.107,0.299,0.107,0.471c0,0.229-0.11,0.425-0.326,0.576
	c-0.202,0.146-0.391,0.219-0.558,0.219c-0.3,0-0.538-0.139-0.688-0.399l-3.107-5.264h-1.853v4.815c0,0.232-0.083,0.437-0.247,0.604
	C27.611,133.981,27.408,134.068,27.174,134.068"/>
<path fill="#29295F" d="M44.641,133.042c0,0.202-0.067,0.374-0.204,0.515c-0.137,0.143-0.305,0.215-0.506,0.215h-4.704
	c-0.295,0-0.558-0.061-0.78-0.179c-0.225-0.118-0.339-0.338-0.339-0.657V122.09c0-0.201,0.081-0.389,0.24-0.568
	c0.16-0.178,0.358-0.266,0.595-0.266h4.811c0.201,0,0.369,0.068,0.507,0.205c0.135,0.136,0.204,0.304,0.204,0.506
	c0,0.201-0.069,0.363-0.204,0.487c-0.138,0.125-0.306,0.187-0.507,0.187h-4.225v4.153h3.887c0.179,0,0.338,0.065,0.479,0.196
	s0.214,0.296,0.214,0.497c0,0.2-0.066,0.366-0.195,0.495c-0.131,0.132-0.297,0.196-0.498,0.196h-3.887v4.208h4.402
	c0.189,0,0.355,0.063,0.497,0.194S44.641,132.866,44.641,133.042"/>
<path fill="#29295F" d="M38.943,121.376c-0.203,0-0.369,0.073-0.506,0.226c-0.141,0.158-0.209,0.318-0.209,0.488v10.846
	c0,0.274,0.09,0.455,0.274,0.552c0.205,0.108,0.45,0.163,0.726,0.163h4.703c0.167,0,0.305-0.058,0.42-0.176
	c0.115-0.119,0.17-0.262,0.17-0.433c0-0.142-0.057-0.265-0.174-0.374c-0.119-0.109-0.255-0.162-0.416-0.162H39.41v-4.447h4.007
	c0.17,0,0.305-0.053,0.411-0.159c0.109-0.107,0.162-0.243,0.162-0.413c0-0.166-0.058-0.301-0.176-0.409
	c-0.119-0.11-0.25-0.163-0.397-0.163H39.41v-4.393h4.345c0.171,0,0.31-0.051,0.425-0.155c0.111-0.103,0.165-0.232,0.165-0.399
	c0-0.17-0.056-0.308-0.169-0.422c-0.115-0.113-0.253-0.169-0.421-0.169H38.943z M43.931,133.891h-4.703
	c-0.316,0-0.598-0.065-0.838-0.191c-0.266-0.141-0.402-0.396-0.402-0.764V122.09c0-0.227,0.092-0.445,0.271-0.647
	c0.185-0.203,0.414-0.306,0.685-0.306h4.812c0.231,0,0.431,0.08,0.59,0.24c0.158,0.159,0.239,0.357,0.239,0.59
	c0,0.234-0.082,0.428-0.243,0.576c-0.159,0.146-0.356,0.219-0.586,0.219H39.65v3.912h3.767c0.208,0,0.397,0.076,0.56,0.229
	c0.168,0.153,0.252,0.35,0.252,0.583c0,0.234-0.078,0.43-0.231,0.583c-0.151,0.151-0.347,0.229-0.58,0.229H39.65v3.967h4.281
	c0.221,0,0.415,0.077,0.578,0.229c0.167,0.154,0.252,0.338,0.252,0.548c0,0.232-0.081,0.433-0.238,0.599
	C44.363,133.807,44.165,133.891,43.931,133.891"/>
</svg>
